<svg id="SvgjsSvg1006" width="1055.99609375" height="491" xmlns="http://www.w3.org/2000/svg" version="1.1" xmlns:xlink="http://www.w3.org/1999/xlink" xmlns:svgjs="http://svgjs.com/svgjs"><defs id="SvgjsDefs1007"><marker id="SvgjsMarker1106" markerWidth="14" markerHeight="12" refX="16" refY="6" viewBox="0 0 14 12" orient="auto" markerUnits="userSpaceOnUse"><path id="SvgjsPath1107" d="M1,1 L14,6 L1,11L1,1" fill="#ffffff" stroke="#323232" stroke-width="2"></path></marker><marker id="SvgjsMarker1110" markerWidth="14" markerHeight="12" refX="16" refY="6" viewBox="0 0 14 12" orient="auto" markerUnits="userSpaceOnUse"><path id="SvgjsPath1111" d="M1,1 L14,6 L1,11L1,1" fill="#ffffff" stroke="#323232" stroke-width="2"></path></marker><marker id="SvgjsMarker1114" markerWidth="14" markerHeight="12" refX="16" refY="6" viewBox="0 0 14 12" orient="auto" markerUnits="userSpaceOnUse"><path id="SvgjsPath1115" d="M1,1 L14,6 L1,11L1,1" fill="#ffffff" stroke="#323232" stroke-width="2"></path></marker><marker id="SvgjsMarker1118" markerWidth="14" markerHeight="12" refX="16" refY="6" viewBox="0 0 14 12" orient="auto" markerUnits="userSpaceOnUse"><path id="SvgjsPath1119" d="M1,1 L14,6 L1,11L1,1" fill="#ffffff" stroke="#323232" stroke-width="2"></path></marker><marker id="SvgjsMarker1122" markerWidth="14" markerHeight="12" refX="16" refY="6" viewBox="0 0 14 12" orient="auto" markerUnits="userSpaceOnUse"><path id="SvgjsPath1123" d="M1,1 L14,6 L1,11L1,1" fill="#ffffff" stroke="#323232" stroke-width="2"></path></marker><marker id="SvgjsMarker1138" markerWidth="14" markerHeight="12" refX="16" refY="6" viewBox="0 0 14 12" orient="auto" markerUnits="userSpaceOnUse"><path id="SvgjsPath1139" d="M1,1 L14,6 L1,11L1,1" fill="#ffffff" stroke="#323232" stroke-width="2"></path></marker><marker id="SvgjsMarker1142" markerWidth="20" markerHeight="12" refX="20" refY="6" viewBox="0 0 20 12" orient="auto" markerUnits="userSpaceOnUse"><path id="SvgjsPath1143" d="M2,6 L10,2 L18,6 L10,10L2,6" fill="#ffffff" stroke="#323232" stroke-width="2"></path></marker><marker id="SvgjsMarker1146" markerWidth="20" markerHeight="12" refX="20" refY="6" viewBox="0 0 20 12" orient="auto" markerUnits="userSpaceOnUse"><path id="SvgjsPath1147" d="M2,6 L10,2 L18,6 L10,10L2,6" fill="#ffffff" stroke="#323232" stroke-width="2"></path></marker></defs><g id="SvgjsG1008" transform="translate(25.0078125,375.00390625)"><path id="SvgjsPath1009" d="M 0 4Q 0 0 4 0L 141 0Q 145 0 145 4L 145 87Q 145 91 141 91L 4 91Q 0 91 0 87Z" stroke="#323232" stroke-width="2" fill-opacity="1" fill="#ffffff"></path><path id="SvgjsPath1010" d="M 0 30L 145 30M 0 60L 145 60" stroke="#323232" stroke-width="2" fill="none"></path><path id="SvgjsPath1011" d="M 0 0L 145 0L 145 91L 0 91Z" stroke="none" fill="none"></path><g id="SvgjsG1012"><text id="SvgjsText1013" font-family="微软雅黑" text-anchor="middle" font-size="13px" width="70" fill="#323232" font-weight="700" align="middle" anchor="middle" family="微软雅黑" size="13px" weight="700" font-style="" y="5.55" transform="rotate(0)"><tspan id="SvgjsTspan1014" dy="16" x="72.5"><tspan id="SvgjsTspan1015" style="text-decoration:;">SmallPen</tspan></tspan></text></g><g id="SvgjsG1016"><text id="SvgjsText1017" font-family="微软雅黑" text-anchor="start" font-size="13px" width="0" fill="#323232" font-weight="400" align="middle" anchor="start" family="微软雅黑" size="13px" weight="400" font-style="" y="35.55" transform="rotate(0)"></text></g><g id="SvgjsG1018"><text id="SvgjsText1019" font-family="微软雅黑" text-anchor="start" font-size="13px" width="0" fill="#323232" font-weight="400" align="middle" anchor="start" family="微软雅黑" size="13px" weight="400" font-style="" y="65.55" transform="rotate(0)"></text></g></g><g id="SvgjsG1020" transform="translate(179.0078125,193.00390625)"><path id="SvgjsPath1021" d="M 0 4Q 0 0 4 0L 162 0Q 166 0 166 4L 166 88Q 166 92 162 92L 4 92Q 0 92 0 88Z" stroke="#323232" stroke-width="2" fill-opacity="1" fill="#ffffff"></path><path id="SvgjsPath1022" d="M 0 30L 166 30M 0 60L 166 60" stroke="#323232" stroke-width="2" fill="none"></path><path id="SvgjsPath1023" d="M 0 0L 166 0L 166 92L 0 92Z" stroke="none" fill="none"></path><g id="SvgjsG1024"><text id="SvgjsText1025" font-family="微软雅黑" text-anchor="middle" font-size="13px" width="30" fill="#323232" font-weight="700" align="middle" anchor="middle" family="微软雅黑" size="13px" weight="700" font-style="" y="5.55" transform="rotate(0)"><tspan id="SvgjsTspan1026" dy="16" x="83"><tspan id="SvgjsTspan1027" style="text-decoration:;">Size</tspan></tspan></text></g><g id="SvgjsG1028"><text id="SvgjsText1029" font-family="微软雅黑" text-anchor="start" font-size="13px" width="0" fill="#323232" font-weight="400" align="middle" anchor="start" family="微软雅黑" size="13px" weight="400" font-style="" y="35.55" transform="rotate(0)"></text></g><g id="SvgjsG1030"><text id="SvgjsText1031" font-family="微软雅黑" text-anchor="start" font-size="13px" width="0" fill="#323232" font-weight="400" align="middle" anchor="start" family="微软雅黑" size="13px" weight="400" font-style="" y="65.55" transform="rotate(0)"></text></g></g><g id="SvgjsG1032" transform="translate(187.0078125,375.00390625)"><path id="SvgjsPath1033" d="M 0 4Q 0 0 4 0L 141 0Q 145 0 145 4L 145 87Q 145 91 141 91L 4 91Q 0 91 0 87Z" stroke="#323232" stroke-width="2" fill-opacity="1" fill="#ffffff"></path><path id="SvgjsPath1034" d="M 0 30L 145 30M 0 60L 145 60" stroke="#323232" stroke-width="2" fill="none"></path><path id="SvgjsPath1035" d="M 0 0L 145 0L 145 91L 0 91Z" stroke="none" fill="none"></path><g id="SvgjsG1036"><text id="SvgjsText1037" font-family="微软雅黑" text-anchor="middle" font-size="13px" width="81" fill="#323232" font-weight="700" align="middle" anchor="middle" family="微软雅黑" size="13px" weight="700" font-style="" y="5.55" transform="rotate(0)"><tspan id="SvgjsTspan1038" dy="16" x="72.5"><tspan id="SvgjsTspan1039" style="text-decoration:;">MiddlePen</tspan></tspan></text></g><g id="SvgjsG1040"><text id="SvgjsText1041" font-family="微软雅黑" text-anchor="start" font-size="13px" width="0" fill="#323232" font-weight="400" align="middle" anchor="start" family="微软雅黑" size="13px" weight="400" font-style="" y="35.55" transform="rotate(0)"></text></g><g id="SvgjsG1042"><text id="SvgjsText1043" font-family="微软雅黑" text-anchor="start" font-size="13px" width="0" fill="#323232" font-weight="400" align="middle" anchor="start" family="微软雅黑" size="13px" weight="400" font-style="" y="65.55" transform="rotate(0)"></text></g></g><g id="SvgjsG1044" transform="translate(345.0078125,375.00390625)"><path id="SvgjsPath1045" d="M 0 4Q 0 0 4 0L 141 0Q 145 0 145 4L 145 87Q 145 91 141 91L 4 91Q 0 91 0 87Z" stroke="#323232" stroke-width="2" fill-opacity="1" fill="#ffffff"></path><path id="SvgjsPath1046" d="M 0 30L 145 30M 0 60L 145 60" stroke="#323232" stroke-width="2" fill="none"></path><path id="SvgjsPath1047" d="M 0 0L 145 0L 145 91L 0 91Z" stroke="none" fill="none"></path><g id="SvgjsG1048"><text id="SvgjsText1049" font-family="微软雅黑" text-anchor="middle" font-size="13px" width="53" fill="#323232" font-weight="700" align="middle" anchor="middle" family="微软雅黑" size="13px" weight="700" font-style="" y="5.55" transform="rotate(0)"><tspan id="SvgjsTspan1050" dy="16" x="72.5"><tspan id="SvgjsTspan1051" style="text-decoration:;">BigPen</tspan></tspan></text></g><g id="SvgjsG1052"><text id="SvgjsText1053" font-family="微软雅黑" text-anchor="start" font-size="13px" width="0" fill="#323232" font-weight="400" align="middle" anchor="start" family="微软雅黑" size="13px" weight="400" font-style="" y="35.55" transform="rotate(0)"></text></g><g id="SvgjsG1054"><text id="SvgjsText1055" font-family="微软雅黑" text-anchor="start" font-size="13px" width="0" fill="#323232" font-weight="400" align="middle" anchor="start" family="微软雅黑" size="13px" weight="400" font-style="" y="65.55" transform="rotate(0)"></text></g></g><g id="SvgjsG1056" transform="translate(411.0078125,25.00390625)"><path id="SvgjsPath1057" d="M 0 4Q 0 0 4 0L 183 0Q 187 0 187 4L 187 93Q 187 97 183 97L 4 97Q 0 97 0 93Z" stroke="#323232" stroke-width="2" fill-opacity="1" fill="#ffffff"></path><path id="SvgjsPath1058" d="M 0 30L 187 30M 0 60L 187 60" stroke="#323232" stroke-width="2" fill="none"></path><path id="SvgjsPath1059" d="M 0 0L 187 0L 187 97L 0 97Z" stroke="none" fill="none"></path><g id="SvgjsG1060"><text id="SvgjsText1061" font-family="微软雅黑" text-anchor="middle" font-size="13px" width="28" fill="#323232" font-weight="700" align="middle" anchor="middle" family="微软雅黑" size="13px" weight="700" font-style="" y="5.55" transform="rotate(0)"><tspan id="SvgjsTspan1062" dy="16" x="93.5"><tspan id="SvgjsTspan1063" style="text-decoration:;">Pen</tspan></tspan></text></g><g id="SvgjsG1064"><text id="SvgjsText1065" font-family="微软雅黑" text-anchor="start" font-size="13px" width="0" fill="#323232" font-weight="400" align="middle" anchor="start" family="微软雅黑" size="13px" weight="400" font-style="" y="35.55" transform="rotate(0)"></text></g><g id="SvgjsG1066"><text id="SvgjsText1067" font-family="微软雅黑" text-anchor="start" font-size="13px" width="0" fill="#323232" font-weight="400" align="middle" anchor="start" family="微软雅黑" size="13px" weight="400" font-style="" y="65.55" transform="rotate(0)"></text></g></g><g id="SvgjsG1068" transform="translate(720.0078125,193.00390625)"><path id="SvgjsPath1069" d="M 0 4Q 0 0 4 0L 162 0Q 166 0 166 4L 166 88Q 166 92 162 92L 4 92Q 0 92 0 88Z" stroke="#323232" stroke-width="2" fill-opacity="1" fill="#ffffff"></path><path id="SvgjsPath1070" d="M 0 30L 166 30M 0 60L 166 60" stroke="#323232" stroke-width="2" fill="none"></path><path id="SvgjsPath1071" d="M 0 0L 166 0L 166 92L 0 92Z" stroke="none" fill="none"></path><g id="SvgjsG1072"><text id="SvgjsText1073" font-family="微软雅黑" text-anchor="middle" font-size="13px" width="40" fill="#323232" font-weight="700" align="middle" anchor="middle" family="微软雅黑" size="13px" weight="700" font-style="" y="5.55" transform="rotate(0)"><tspan id="SvgjsTspan1074" dy="16" x="83"><tspan id="SvgjsTspan1075" style="text-decoration:;">Color</tspan></tspan></text></g><g id="SvgjsG1076"><text id="SvgjsText1077" font-family="微软雅黑" text-anchor="start" font-size="13px" width="0" fill="#323232" font-weight="400" align="middle" anchor="start" family="微软雅黑" size="13px" weight="400" font-style="" y="35.55" transform="rotate(0)"></text></g><g id="SvgjsG1078"><text id="SvgjsText1079" font-family="微软雅黑" text-anchor="start" font-size="13px" width="0" fill="#323232" font-weight="400" align="middle" anchor="start" family="微软雅黑" size="13px" weight="400" font-style="" y="65.55" transform="rotate(0)"></text></g></g><g id="SvgjsG1080" transform="translate(557.0078125,375.00390625)"><path id="SvgjsPath1081" d="M 0 4Q 0 0 4 0L 141 0Q 145 0 145 4L 145 87Q 145 91 141 91L 4 91Q 0 91 0 87Z" stroke="#323232" stroke-width="2" fill-opacity="1" fill="#ffffff"></path><path id="SvgjsPath1082" d="M 0 30L 145 30M 0 60L 145 60" stroke="#323232" stroke-width="2" fill="none"></path><path id="SvgjsPath1083" d="M 0 0L 145 0L 145 91L 0 91Z" stroke="none" fill="none"></path><g id="SvgjsG1084"><text id="SvgjsText1085" font-family="微软雅黑" text-anchor="middle" font-size="13px" width="58" fill="#323232" font-weight="700" align="middle" anchor="middle" family="微软雅黑" size="13px" weight="700" font-style="" y="5.55" transform="rotate(0)"><tspan id="SvgjsTspan1086" dy="16" x="72.5"><tspan id="SvgjsTspan1087" style="text-decoration:;">RedPen</tspan></tspan></text></g><g id="SvgjsG1088"><text id="SvgjsText1089" font-family="微软雅黑" text-anchor="start" font-size="13px" width="0" fill="#323232" font-weight="400" align="middle" anchor="start" family="微软雅黑" size="13px" weight="400" font-style="" y="35.55" transform="rotate(0)"></text></g><g id="SvgjsG1090"><text id="SvgjsText1091" font-family="微软雅黑" text-anchor="start" font-size="13px" width="0" fill="#323232" font-weight="400" align="middle" anchor="start" family="微软雅黑" size="13px" weight="400" font-style="" y="65.55" transform="rotate(0)"></text></g></g><g id="SvgjsG1092" transform="translate(886.0078125,375.00390625)"><path id="SvgjsPath1093" d="M 0 4Q 0 0 4 0L 141 0Q 145 0 145 4L 145 87Q 145 91 141 91L 4 91Q 0 91 0 87Z" stroke="#323232" stroke-width="2" fill-opacity="1" fill="#ffffff"></path><path id="SvgjsPath1094" d="M 0 30L 145 30M 0 60L 145 60" stroke="#323232" stroke-width="2" fill="none"></path><path id="SvgjsPath1095" d="M 0 0L 145 0L 145 91L 0 91Z" stroke="none" fill="none"></path><g id="SvgjsG1096"><text id="SvgjsText1097" font-family="微软雅黑" text-anchor="middle" font-size="13px" width="74" fill="#323232" font-weight="700" align="middle" anchor="middle" family="微软雅黑" size="13px" weight="700" font-style="" y="5.55" transform="rotate(0)"><tspan id="SvgjsTspan1098" dy="16" x="72.5"><tspan id="SvgjsTspan1099" style="text-decoration:;">GreenPen</tspan></tspan></text></g><g id="SvgjsG1100"><text id="SvgjsText1101" font-family="微软雅黑" text-anchor="start" font-size="13px" width="0" fill="#323232" font-weight="400" align="middle" anchor="start" family="微软雅黑" size="13px" weight="400" font-style="" y="35.55" transform="rotate(0)"></text></g><g id="SvgjsG1102"><text id="SvgjsText1103" font-family="微软雅黑" text-anchor="start" font-size="13px" width="0" fill="#323232" font-weight="400" align="middle" anchor="start" family="微软雅黑" size="13px" weight="400" font-style="" y="65.55" transform="rotate(0)"></text></g></g><g id="SvgjsG1104"><path id="SvgjsPath1105" d="M97.5078125 375.00390625L262.0078125 285.00390625" stroke="#323232" stroke-width="2" fill="none" marker-end="url(#SvgjsMarker1106)"></path></g><g id="SvgjsG1108"><path id="SvgjsPath1109" d="M259.5078125 375.00390625L262.0078125 285.00390625" stroke="#323232" stroke-width="2" fill="none" marker-end="url(#SvgjsMarker1110)"></path></g><g id="SvgjsG1112"><path id="SvgjsPath1113" d="M417.5078125 375.00390625L262.0078125 285.00390625" stroke="#323232" stroke-width="2" fill="none" marker-end="url(#SvgjsMarker1114)"></path></g><g id="SvgjsG1116"><path id="SvgjsPath1117" d="M629.5078125 375.00390625L803.0078125 285.00390625" stroke="#323232" stroke-width="2" fill="none" marker-end="url(#SvgjsMarker1118)"></path></g><g id="SvgjsG1120"><path id="SvgjsPath1121" d="M958.5078125 375.00390625L803.0078125 285.00390625" stroke="#323232" stroke-width="2" fill="none" marker-end="url(#SvgjsMarker1122)"></path></g><g id="SvgjsG1124" transform="translate(723.0078125,375.00390625)"><path id="SvgjsPath1125" d="M 0 4Q 0 0 4 0L 141 0Q 145 0 145 4L 145 87Q 145 91 141 91L 4 91Q 0 91 0 87Z" stroke="#323232" stroke-width="2" fill-opacity="1" fill="#ffffff"></path><path id="SvgjsPath1126" d="M 0 30L 145 30M 0 60L 145 60" stroke="#323232" stroke-width="2" fill="none"></path><path id="SvgjsPath1127" d="M 0 0L 145 0L 145 91L 0 91Z" stroke="none" fill="none"></path><g id="SvgjsG1128"><text id="SvgjsText1129" font-family="微软雅黑" text-anchor="middle" font-size="13px" width="69" fill="#323232" font-weight="700" align="middle" anchor="middle" family="微软雅黑" size="13px" weight="700" font-style="" y="5.55" transform="rotate(0)"><tspan id="SvgjsTspan1130" dy="16" x="72.5"><tspan id="SvgjsTspan1131" style="text-decoration:;">BlackPen</tspan></tspan></text></g><g id="SvgjsG1132"><text id="SvgjsText1133" font-family="微软雅黑" text-anchor="start" font-size="13px" width="0" fill="#323232" font-weight="400" align="middle" anchor="start" family="微软雅黑" size="13px" weight="400" font-style="" y="35.55" transform="rotate(0)"></text></g><g id="SvgjsG1134"><text id="SvgjsText1135" font-family="微软雅黑" text-anchor="start" font-size="13px" width="0" fill="#323232" font-weight="400" align="middle" anchor="start" family="微软雅黑" size="13px" weight="400" font-style="" y="65.55" transform="rotate(0)"></text></g></g><g id="SvgjsG1136"><path id="SvgjsPath1137" d="M795.5078125 375.00390625L803.0078125 285.00390625" stroke="#323232" stroke-width="2" fill="none" marker-end="url(#SvgjsMarker1138)"></path></g><g id="SvgjsG1140"><path id="SvgjsPath1141" d="M262.0078125 193.00390625L504.5078125 122.00390625" stroke="#323232" stroke-width="2" fill="none" marker-end="url(#SvgjsMarker1142)"></path></g><g id="SvgjsG1144"><path id="SvgjsPath1145" d="M803.0078125 193.00390625L504.5078125 122.00390625" stroke="#323232" stroke-width="2" fill="none" marker-end="url(#SvgjsMarker1146)"></path></g></svg>